HIERARCHY
ROOT Hips
{
	OFFSET -0.001795 -0.223333 0.028219
	CHANNELS 6 Xposition Yposition Zposition Zrotation Yrotation Xrotation 
	JOINT LeftUpLeg
	{
		OFFSET 0.069520 -0.091406 -0.006815
		CHANNELS 3 Zrotation Yrotation Xrotation
		JOINT LeftLeg
		{
			OFFSET 0.034277 -0.375199 -0.004496
			CHANNELS 3 Zrotation Yrotation Xrotation
			JOINT LeftFoot
			{
				OFFSET -0.013596 -0.397961 -0.043693
				CHANNELS 3 Zrotation Yrotation Xrotation
				JOINT LeftToe
				{
					OFFSET 0.026358 -0.055791 0.119288
					CHANNELS 3 Zrotation Yrotation Xrotation
					End Site
					{
						OFFSET 0.000000 0.000000 0.000000
					}
				}
			}
		}
	}
	JOINT RightUpLeg
	{
		OFFSET -0.067670 -0.090522 -0.004320
		CHANNELS 3 Zrotation Yrotation Xrotation
		JOINT RightLeg
		{
			OFFSET -0.038290 -0.382569 -0.008850
			CHANNELS 3 Zrotation Yrotation Xrotation
			JOINT RightFoot
			{
				OFFSET 0.015774 -0.398415 -0.042312
				CHANNELS 3 Zrotation Yrotation Xrotation
				JOINT RightToe
				{
					OFFSET -0.025372 -0.048144 0.123348
					CHANNELS 3 Zrotation Yrotation Xrotation
					End Site
					{
						OFFSET 0.000000 0.000000 0.000000
					}
				}
			}
		}
	}
	JOINT Spine
	{
		OFFSET -0.002533 0.108963 -0.026696
		CHANNELS 3 Zrotation Yrotation Xrotation
		JOINT Spine1
		{
			OFFSET 0.005487 0.135180 0.001092
			CHANNELS 3 Zrotation Yrotation Xrotation
			JOINT Spine2
			{
				OFFSET 0.001457 0.052922 0.025425
				CHANNELS 3 Zrotation Yrotation Xrotation
				JOINT Neck
				{
					OFFSET -0.002778 0.213870 -0.042857
					CHANNELS 3 Zrotation Yrotation Xrotation
					JOINT Head
					{
						OFFSET 0.005152 0.064970 0.051349
						CHANNELS 3 Zrotation Yrotation Xrotation
						End Site
						{
							OFFSET 0.000000 0.000000 0.000000
						}
					}
				}
				JOINT LeftShoulder
				{
					OFFSET 0.078845 0.121749 -0.034090
					CHANNELS 3 Zrotation Yrotation Xrotation
					JOINT LeftArm
					{
						OFFSET 0.090977 0.030469 -0.008868
						CHANNELS 3 Zrotation Yrotation Xrotation
						JOINT LeftForeArm
						{
							OFFSET 0.259612 -0.012772 -0.027456
							CHANNELS 3 Zrotation Yrotation Xrotation
							JOINT LeftHand
							{
								OFFSET 0.249234 0.008986 -0.001171
								CHANNELS 3 Zrotation Yrotation Xrotation
								End Site
								{
									OFFSET 0.000000 0.000000 0.000000
								}
							}
						}
					}
				}
				JOINT RightShoulder
				{
					OFFSET -0.081759 0.118833 -0.038615
					CHANNELS 3 Zrotation Yrotation Xrotation
					JOINT RightArm
					{
						OFFSET -0.096012 0.032551 -0.009143
						CHANNELS 3 Zrotation Yrotation Xrotation
						JOINT RightForeArm
						{
							OFFSET -0.253742 -0.013329 -0.021401
							CHANNELS 3 Zrotation Yrotation Xrotation
							JOINT RightHand
							{
								OFFSET -0.255298 0.007772 -0.005559
								CHANNELS 3 Zrotation Yrotation Xrotation
								End Site
								{
									OFFSET 0.000000 0.000000 0.000000
								}
							}
						}
					}
				}
			}
		}
	}
}
MOTION
Frames: 13
Frame Time: 0.050000
0.115391 0.835102 -0.265817 8.334143 -45.124779 12.531818 19.279980 18.305960 -47.367119 -9.653594 9.715953 39.441848 8.709416 14.620961 12.384556 0.000000 0.000000 0.000000 -42.167437 4.035182 -49.383904 49.594164 -10.052686 32.173110 -50.852257 -59.382988 47.353088 0.000000 0.000000 0.000000 5.951610 3.198881 41.146133 0.796358 0.131726 -28.144722 -4.521837 -10.161896 22.388110 -16.948990 5.648194 -56.576392 0.000000 0.000000 0.000000 -36.804730 -10.075899 20.315602 -9.684485 -34.037655 -3.182669 67.633522 -81.047879 -53.790731 0.000000 0.000000 0.000000 11.485157 23.573588 3.457794 24.703247 13.446843 0.607699 -44.843728 80.035588 -46.164531 0.000000 0.000000 0.000000 
0.119725 0.835902 -0.269193 9.290734 -46.112947 11.497119 17.523778 17.251026 -47.155484 -6.842193 9.096396 41.906611 6.476279 11.311063 7.720386 0.000000 0.000000 0.000000 -42.113920 4.322101 -49.749391 49.140604 -9.712237 32.449504 -48.865551 -59.278626 44.880311 0.000000 0.000000 0.000000 6.789074 3.256622 41.918844 0.196061 0.193509 -28.080586 -4.927802 -12.344539 22.526624 -14.572157 4.757339 -55.486906 0.000000 0.000000 0.000000 -36.438169 -10.338770 21.524383 -8.832565 -33.503738 -3.376965 87.657281 -79.092219 -70.748360 0.000000 0.000000 0.000000 10.592094 24.271311 3.315743 26.827422 13.334371 0.769793 -47.994673 77.986641 -48.877045 0.000000 0.000000 0.000000 
0.128304 0.836580 -0.268426 8.871551 -47.528773 11.504386 16.483008 16.717938 -46.645540 -4.726486 9.042898 44.700097 4.347664 7.861088 5.393678 0.000000 0.000000 0.000000 -41.812966 4.754438 -49.955035 49.010100 -9.064061 31.874124 -46.310311 -59.493172 40.888639 0.000000 0.000000 0.000000 7.044745 3.699504 43.069068 0.645636 0.190154 -28.808425 -4.903718 -12.910017 22.679266 -13.504682 4.365923 -54.863912 0.000000 0.000000 0.000000 -35.754559 -10.975643 22.066977 -9.481985 -33.897374 -3.298882 97.393561 -79.841608 -80.547425 0.000000 0.000000 0.000000 12.245237 24.961315 2.928148 26.165334 12.188712 0.800302 -52.530404 76.140715 -51.152486 0.000000 0.000000 0.000000 
0.140263 0.834495 -0.264174 7.818733 -49.405781 12.546764 16.008511 17.102384 -46.706046 -4.098404 9.174841 45.315285 4.108622 7.326976 3.873604 0.000000 0.000000 0.000000 -42.117340 5.262081 -50.937791 50.070145 -8.765046 31.017759 -45.570115 -59.685029 39.813951 0.000000 0.000000 0.000000 6.775589 4.381500 44.080139 2.334723 -0.014668 -29.522582 -5.286594 -12.945154 22.284377 -11.839238 3.886987 -55.055483 0.000000 0.000000 0.000000 -35.458979 -10.975064 22.131395 -9.860799 -33.321282 -3.243258 113.815562 -79.913581 -96.953548 0.000000 0.000000 0.000000 12.752043 24.770840 2.554896 26.769089 11.808488 0.846922 -54.928094 73.897540 -51.479108 0.000000 0.000000 0.000000 
0.154871 0.830246 -0.257453 6.448444 -51.295797 13.551735 15.154027 17.996249 -48.092318 -2.856352 9.370640 48.058973 3.935755 6.907057 1.260040 0.000000 0.000000 0.000000 -42.991282 5.727830 -51.899587 51.415039 -8.270463 29.346665 -49.168151 -60.443855 44.324874 0.000000 0.000000 0.000000 6.812060 5.067394 45.272030 3.390531 -0.101554 -29.994084 -5.515578 -13.728302 22.422211 -11.986316 3.974945 -56.089530 0.000000 0.000000 0.000000 -34.955566 -11.308004 22.652844 -8.747332 -33.653161 -3.367420 119.394523 -79.006693 -101.953404 0.000000 0.000000 0.000000 12.901720 25.381512 2.443904 26.897530 11.016905 0.827002 -56.048850 71.077434 -50.488039 0.000000 0.000000 0.000000 
0.171026 0.823944 -0.249207 5.046957 -53.413252 14.661255 14.791012 19.200442 -49.093369 -2.143193 9.789903 50.301530 4.299008 7.438854 -0.468805 0.000000 0.000000 0.000000 -44.695767 6.150870 -52.898537 53.659626 -7.862890 27.193282 -51.347982 -61.188099 46.530030 0.000000 0.000000 0.000000 7.425413 5.850771 47.368600 4.231390 -0.096695 -30.985929 -5.943363 -14.867998 22.312664 -11.734105 3.950454 -57.201052 0.000000 0.000000 0.000000 -34.926888 -12.390527 23.843258 -6.818448 -34.573960 -3.596570 110.323647 -78.077820 -92.220003 0.000000 0.000000 0.000000 13.874174 26.019413 2.075009 25.540775 10.292415 0.900574 -54.650244 69.016132 -47.588691 0.000000 0.000000 0.000000 
0.186885 0.818212 -0.240470 4.182686 -55.041878 15.101357 13.289892 19.952957 -51.124949 -0.082484 9.320287 53.413217 4.115625 6.961982 -2.363899 0.000000 0.000000 0.000000 -46.210831 6.484611 -53.410252 54.421447 -7.015926 24.966309 -55.410898 -61.436520 52.161853 0.000000 0.000000 0.000000 7.831403 6.586007 49.008276 4.666106 -0.000650 -32.050366 -6.718391 -16.813867 22.846032 -10.736177 3.707847 -57.956143 0.000000 0.000000 0.000000 -34.144428 -13.046118 24.721915 -4.502379 -35.955727 -3.958096 100.245993 -75.422074 -79.641445 0.000000 0.000000 0.000000 14.004850 27.234256 1.961757 25.205252 9.169551 0.909980 -49.208576 67.282334 -42.444264 0.000000 0.000000 0.000000 
0.200452 0.813706 -0.231896 2.711281 -56.786709 16.227468 12.394168 20.974580 -52.564873 1.080154 9.139390 55.386476 4.282349 7.094716 -4.137343 0.000000 0.000000 0.000000 -47.172436 6.950765 -53.913471 55.214885 -6.313724 23.514202 -56.110820 -61.750880 52.868093 0.000000 0.000000 0.000000 8.256979 7.172109 50.099834 5.483484 -0.015648 -32.483907 -7.114715 -17.545948 22.761384 -9.635869 3.267098 -57.295151 0.000000 0.000000 0.000000 -33.726215 -14.494129 25.881565 -2.047835 -37.152643 -4.355439 88.568751 -73.013426 -66.739284 0.000000 0.000000 0.000000 14.691308 28.027458 1.764441 24.413505 7.501614 0.828011 -45.010745 65.830661 -38.093375 0.000000 0.000000 0.000000 
0.211067 0.810415 -0.223625 1.577675 -58.355348 17.473351 11.038846 21.813014 -54.434950 2.846177 8.468431 57.629722 3.930600 6.218422 -5.490307 0.000000 0.000000 0.000000 -47.901009 7.397576 -54.851857 55.353372 -5.736185 22.525725 -59.244677 -62.212312 56.633312 0.000000 0.000000 0.000000 8.395885 7.768953 50.775635 5.707102 0.106641 -33.172906 -7.713123 -18.642887 23.153474 -8.673717 3.059023 -57.756102 0.000000 0.000000 0.000000 -32.080551 -14.731378 25.692514 -1.324410 -38.544570 -4.472499 81.884935 -70.488208 -58.027479 0.000000 0.000000 0.000000 14.833251 28.562598 1.471044 24.952164 6.264039 0.755666 -41.640302 65.202360 -35.516620 0.000000 0.000000 0.000000 
0.218919 0.808538 -0.215153 0.445062 -59.764615 18.229406 11.006136 22.801529 -54.814208 3.680693 8.320637 58.745165 3.861418 5.957430 -6.339153 0.000000 0.000000 0.000000 -48.768621 7.764877 -55.367219 55.830653 -5.259171 21.662313 -58.861568 -61.915631 56.993550 0.000000 0.000000 0.000000 8.540952 8.375218 51.563515 5.980324 0.213612 -33.867709 -7.585408 -19.337876 23.169856 -8.022725 2.825544 -57.668115 0.000000 0.000000 0.000000 -30.939857 -14.575579 25.282562 -0.845363 -39.526402 -4.546569 78.783907 -68.332428 -53.132357 0.000000 0.000000 0.000000 15.112403 28.419958 0.940802 24.715243 5.003043 0.703391 -40.125592 65.516180 -34.776386 0.000000 0.000000 0.000000 
0.224836 0.807777 -0.206489 0.272148 -60.503364 18.908295 10.092470 22.769574 -55.542065 4.322370 8.053688 59.180170 3.853935 5.850940 -7.206744 0.000000 0.000000 0.000000 -49.827500 7.886738 -55.393319 54.866873 -4.953209 21.147529 -57.269204 -61.240083 56.566851 0.000000 0.000000 0.000000 8.622126 8.223147 50.806812 6.204928 0.234392 -33.810828 -7.719648 -19.668064 22.712881 -7.933805 2.743229 -57.561416 0.000000 0.000000 0.000000 -30.347700 -14.299514 25.047899 -1.262007 -38.990663 -4.322999 76.930361 -66.936611 -50.345940 0.000000 0.000000 0.000000 15.930992 28.530701 0.359205 24.281257 2.812743 0.531892 -39.168396 65.779899 -34.039945 0.000000 0.000000 0.000000 
0.229414 0.806937 -0.197940 0.057382 -61.466429 18.845292 9.458397 22.991071 -56.024749 5.338548 7.859988 60.681512 3.878434 5.852739 -7.550349 0.000000 0.000000 0.000000 -50.744352 8.116039 -55.127608 55.021128 -4.720443 20.909473 -55.991924 -60.471991 56.252495 0.000000 0.000000 0.000000 9.237722 8.320095 51.157444 5.440300 0.330982 -34.077116 -7.136610 -20.605341 22.885194 -8.320357 2.861793 -58.108344 0.000000 0.000000 0.000000 -30.400325 -13.888316 25.255677 -0.836611 -39.228715 -4.466496 75.188717 -63.996587 -46.648706 0.000000 0.000000 0.000000 15.226957 28.054707 -0.017642 24.036435 2.311928 0.480243 -41.531104 65.930839 -36.363676 0.000000 0.000000 0.000000 
0.232645 0.805944 -0.190188 1.126573 -61.984551 18.125961 8.707320 22.728362 -56.372952 5.370212 8.073768 61.051105 3.987037 6.021489 -8.187590 0.000000 0.000000 0.000000 -52.197042 8.131028 -54.939339 55.624525 -4.789483 20.506043 -54.574509 -59.838837 55.419624 0.000000 0.000000 0.000000 10.005056 7.994344 50.946560 5.582493 0.342006 -34.033389 -7.677712 -20.574752 22.323656 -7.928680 2.682911 -57.573089 0.000000 0.000000 0.000000 -30.036248 -13.306019 24.710074 -2.281450 -37.793455 -4.014190 76.658275 -63.003330 -46.734547 0.000000 0.000000 0.000000 15.177062 27.263129 -0.528416 22.994536 1.698095 0.458484 -46.284270 65.959770 -39.891401 0.000000 0.000000 0.000000 
